<svg width="101" height="101" viewBox="0 0 101 101" fill="none" xmlns="http://www.w3.org/2000/svg">
<path d="M36.4418 39.3465C36.6506 39.6787 37.0913 39.7787 37.4231 39.5697C37.755 39.3608 37.8549 38.9196 37.6462 38.5873C37.3803 38.1658 37.1876 37.6228 37.077 37.003C37.6943 37.1137 38.2385 37.3084 38.6596 37.5728C38.9915 37.7817 39.4322 37.6817 39.641 37.3495C39.8497 37.0173 39.7498 36.5761 39.4179 36.3671C38.7595 35.9527 37.912 35.6705 36.9699 35.5436C36.9931 34.513 37.2144 33.4073 37.6694 32.3696C38.21 31.1371 39.0807 30.0011 40.3386 29.2098C41.3307 28.5846 42.5707 28.1684 44.0909 28.0773C45.4987 28.1541 46.8405 28.3613 48.0145 28.7418C49.9933 29.3848 51.4796 30.5298 51.9221 32.4035C51.9845 32.6714 52.0291 32.9536 52.0505 33.2502C52.1273 34.3112 51.699 35.4222 50.7837 36.301C49.9326 37.1191 48.6658 37.7407 46.9904 37.9586C46.6014 38.0086 46.3248 38.3641 46.3748 38.7534C46.3908 38.8767 46.4372 38.9874 46.505 39.0821C47.9075 41.1559 48.3036 43.1082 47.9806 44.6622C47.8058 45.5071 47.4132 46.2341 46.8565 46.7931C46.2998 47.3504 45.5737 47.7434 44.7279 47.9184C43.172 48.2418 41.2147 47.8434 39.136 46.427C38.8113 46.2073 38.3688 46.2912 38.1493 46.6163C38.0851 46.7128 38.0458 46.8181 38.0316 46.9253C37.8139 48.6008 37.1948 49.8708 36.3758 50.7228C35.4979 51.6391 34.3881 52.0678 33.3283 51.991C33.0321 51.9696 32.7501 51.9267 32.4825 51.8624C30.6108 51.4194 29.4671 49.9297 28.8248 47.9506C28.4447 46.7753 28.2377 45.4321 28.161 44.0227C28.252 42.5009 28.6678 41.2595 29.2922 40.2664C30.0845 39.0071 31.2175 38.1354 32.4486 37.5942C33.4853 37.1387 34.5879 36.9172 35.6192 36.894C35.7459 37.8371 36.0278 38.6856 36.4418 39.3447V39.3465ZM36.3633 31.8015C35.8387 33.0001 35.5782 34.2772 35.5461 35.4722C34.3524 35.5043 33.0785 35.7651 31.8794 36.2903C30.5305 36.8833 29.2762 37.8121 28.3395 39.1321C28.5054 37.6871 28.757 36.2974 29.046 35.0721C29.5563 32.9144 29.7954 31.1657 29.84 29.7617C31.2424 29.717 32.9875 29.4777 35.1446 28.9668C36.3704 28.6775 37.7568 28.4256 39.2003 28.2595C37.8817 29.1973 36.9539 30.453 36.3615 31.8033L36.3633 31.8015ZM44.1391 26.6519L44.1141 26.6501C42.9401 26.5876 41.7339 26.6108 40.542 26.6966C38.5062 26.843 36.5149 27.1735 34.8235 27.5736C32.7145 28.0737 31.0765 28.3238 29.8204 28.3988C29.6455 25.9553 28.7302 24.9175 27.756 24.6871C26.937 24.4924 26.0913 24.8336 25.506 25.4194C24.9208 26.0053 24.5818 26.852 24.7745 27.6718C25.0047 28.6471 26.0431 29.5634 28.4822 29.7385C28.4073 30.996 28.1575 32.6357 27.6579 34.747C27.2582 36.4403 26.9281 38.4355 26.7818 40.4718C26.6961 41.665 26.673 42.8724 26.7354 44.0477L26.7372 44.0728C26.8193 45.6071 27.0476 47.0825 27.4687 48.3864C28.2592 50.8282 29.7205 52.6769 32.1578 53.2538C32.495 53.3342 32.8501 53.3878 33.2265 53.4146C34.6968 53.52 36.217 52.9448 37.3999 51.7106C38.2261 50.8496 38.888 49.6654 39.2449 48.1703C41.3449 49.3563 43.3469 49.66 45.0152 49.3117C46.141 49.0777 47.1117 48.5508 47.8629 47.8006C48.6123 47.0504 49.1386 46.0769 49.3723 44.9498C49.7185 43.2797 49.4152 41.2738 48.2322 39.1732C49.7256 38.816 50.9086 38.1533 51.7686 37.3263C53.0015 36.142 53.5761 34.6202 53.4708 33.1483C53.444 32.7715 53.3887 32.416 53.3102 32.0784C52.7339 29.6402 50.8872 28.1773 48.4481 27.3843C47.1456 26.9609 45.6718 26.7341 44.1391 26.6519ZM82.3509 1.50577C82.7434 1.50577 83.061 1.18783 83.061 0.794861C83.061 0.401894 82.7434 0.0839539 82.3509 0.0839539L10.9018 0.0928802C10.404 0.0553741 9.90623 0.030365 9.4102 0.0196457C9.29066 0.0178604 9.17825 0.0446548 9.08012 0.0946655H4.61946C3.65596 0.0357208 2.64071 0.00357056 1.56837 0C1.4399 0 1.31857 0.0339355 1.21508 0.0946655H0.710137C0.317599 0.0946655 0 0.412613 0 0.80558L0.199837 82.3279C0.199837 82.7208 0.517436 83.0388 0.909974 83.0388C1.30251 83.0388 1.62011 82.7208 1.62011 82.3279L1.60584 76.7442C1.63617 76.8138 1.66829 76.8853 1.70397 76.955C2.82806 79.2324 4.68369 80.5738 6.65709 80.9721C7.78652 81.2008 8.94808 81.1204 10.0329 80.7328C10.3933 80.6042 10.7448 80.4416 11.0838 80.2434L11.1267 93.2666C11.1267 93.6595 11.4443 93.9775 11.8368 93.9775C12.2293 93.9775 12.5469 93.6595 12.5469 93.2666L12.5005 79.1377C12.6504 78.9859 12.795 78.8233 12.9359 78.6536C14.54 76.6942 15.4142 73.554 14.6649 69.2528C14.5988 68.8652 14.2313 68.6027 13.8423 68.6688C13.4551 68.7349 13.1928 69.1028 13.2589 69.4922C13.9297 73.3397 13.2 76.0833 11.8368 77.7498C11.1909 78.5375 10.4005 79.0841 9.55116 79.3878C8.70542 79.6896 7.80437 79.7521 6.93365 79.5771C5.37242 79.2609 3.89326 78.1767 2.97794 76.3244C2.31954 74.9901 2.812 73.5308 3.74874 72.5109C4.18231 72.0375 4.70867 71.6607 5.25822 71.432C5.77388 71.2177 6.30559 71.1373 6.79091 71.2409C7.61524 71.4177 8.35214 72.1644 8.70542 73.7451C8.78928 74.1292 9.16933 74.3721 9.55295 74.2864C9.93656 74.2024 10.1792 73.822 10.0936 73.4379C9.59577 71.2105 8.42886 70.1317 7.08531 69.8441C6.30559 69.678 5.48483 69.7923 4.71224 70.1138C3.97355 70.421 3.27234 70.9212 2.70137 71.5445C2.23568 72.0518 1.85207 72.6448 1.59692 73.2843L1.46131 18.0138C2.47834 21.3201 3.97534 24.437 5.76317 27.0663C7.08352 29.1883 8.36284 31.6694 9.3085 34.1111C10.1899 36.3903 10.7805 38.6266 10.834 40.4825C10.8787 41.999 10.6521 43.6655 9.95619 45.5357C9.36381 47.1254 8.436 48.8651 7.04784 50.7853C5.93267 52.1893 5.00129 53.6164 4.37501 54.7828C4.24298 54.9882 4.21978 55.2544 4.33576 55.4884C5.09407 57.0102 6.36625 59.0072 7.90964 60.8416C9.32099 62.5189 10.9625 64.0639 12.654 64.9999C14.4615 66.0002 16.3349 66.3235 18.0871 65.45C18.4475 65.2696 18.8061 65.0338 19.1594 64.7355C20.1051 63.9371 20.6814 62.7064 20.6725 61.2792C20.6653 60.0611 20.23 58.7018 19.229 57.3657C18.9935 57.0513 18.5474 56.987 18.2334 57.2228C17.9194 57.4586 17.8551 57.9051 18.0906 58.2195C18.8953 59.293 19.2433 60.354 19.2486 61.2846C19.2558 62.2759 18.8722 63.1172 18.2423 63.6477C17.9889 63.8621 17.7231 64.0354 17.4483 64.1729C16.1779 64.807 14.7523 64.5337 13.3374 63.7513C11.8065 62.9047 10.3006 61.4811 8.99447 59.9271C7.64378 58.3213 6.51078 56.5797 5.77744 55.1794C6.18604 54.4506 6.71061 53.6272 7.32262 52.7787C7.60453 52.4197 7.87395 52.0642 8.12732 51.7159C8.44313 51.3176 8.77679 50.9193 9.12294 50.5299C10.4754 49.008 12.0206 47.6237 13.5693 46.8217C15.0057 46.0769 16.4402 45.8429 17.691 46.5109C17.9497 46.6485 18.2084 46.8307 18.4671 47.0611C19.0827 47.6094 19.4431 48.4597 19.411 49.4492C19.3807 50.3798 19.0024 51.4319 18.1692 52.484C17.9265 52.793 17.9782 53.2395 18.2869 53.4825C18.5956 53.7254 19.0417 53.6736 19.2843 53.3646C20.321 52.0553 20.792 50.7085 20.8331 49.4921C20.8812 48.0631 20.3388 46.8164 19.4164 45.9929C19.0809 45.6946 18.7294 45.4499 18.3619 45.2534C16.6329 44.33 14.7523 44.6033 12.9181 45.5535C12.2615 45.8929 11.612 46.3216 10.9786 46.811C11.091 46.5484 11.1927 46.2894 11.289 46.0322C12.0563 43.9709 12.3061 42.1258 12.2561 40.4432C12.1972 38.4105 11.5727 36.0134 10.636 33.5967C10.3969 32.9804 10.1382 32.3624 9.86341 31.748C10.6717 32.4428 11.5067 33.0358 12.356 33.5127C13.9672 34.4183 15.6373 34.906 17.302 34.8685C19.1808 34.8256 21.0258 34.1182 22.7369 32.5946C23.4755 31.9373 23.8342 31.23 23.8485 30.4583C23.8627 29.7224 23.5487 28.9811 22.9421 28.2149C20.7474 25.4391 17.6785 24.162 14.4971 22.8402C8.20939 20.227 1.46131 17.4208 1.42206 1.56828V1.5147H4.53381C17.773 2.34885 20.3799 8.63093 22.8189 14.5093C24.1393 17.6941 25.415 20.7664 28.1878 22.9634C28.9532 23.5707 29.6937 23.8851 30.4288 23.8708C31.1996 23.8565 31.9062 23.4975 32.5628 22.758C34.0848 21.045 34.7913 19.1999 34.8342 17.3172C34.8716 15.6507 34.3845 13.9788 33.4799 12.3659C32.9964 11.5031 32.3933 10.6565 31.6885 9.83662C32.3166 10.1188 32.9482 10.385 33.5763 10.6279C35.9904 11.5639 38.3849 12.1908 40.4153 12.2498C42.0961 12.298 43.9393 12.0479 45.9983 11.2817C46.2659 11.1816 46.5354 11.0745 46.8101 10.9566C46.348 11.5639 45.943 12.1873 45.6183 12.8142C44.669 14.6504 44.396 16.5331 45.3185 18.2639C45.5148 18.6301 45.7592 18.9838 46.0572 19.3196C46.8779 20.243 48.1251 20.786 49.5526 20.7378C50.7676 20.6967 52.113 20.2252 53.4208 19.1874C53.7295 18.9445 53.7813 18.4961 53.5386 18.1889C53.2959 17.8799 52.8481 17.8281 52.5412 18.071C51.4903 18.9052 50.4393 19.2821 49.5097 19.3142C48.523 19.3481 47.6719 18.9855 47.1242 18.3693C46.8958 18.1121 46.7138 17.8531 46.5746 17.5923C45.9073 16.3402 46.141 14.9041 46.8851 13.4662C47.6862 11.9158 49.069 10.3689 50.5892 9.01496C50.8711 8.76311 51.1584 8.5184 51.4474 8.28262C51.881 7.97182 52.3217 7.63959 52.7732 7.28413C52.8106 7.25377 52.8463 7.21983 52.8766 7.1841C53.7099 6.58394 54.5182 6.06952 55.2337 5.66583C56.6325 6.39996 58.3722 7.53599 59.9762 8.88636C61.5285 10.1956 62.9506 11.7032 63.7963 13.234C64.5778 14.6504 64.8508 16.0776 64.2174 17.3494C64.08 17.6245 63.907 17.8906 63.6928 18.1442C63.1629 18.7748 62.3225 19.157 61.3323 19.1517C60.4027 19.1463 59.3428 18.7962 58.2705 17.9924C57.9564 17.7566 57.5104 17.8209 57.2748 18.1353C57.0393 18.4497 57.1036 18.8962 57.4176 19.132C58.754 20.1341 60.1118 20.5681 61.3269 20.577C62.7525 20.586 63.9837 20.009 64.7795 19.0623C65.0774 18.7087 65.313 18.3497 65.4932 17.9888C66.3675 16.2348 66.0427 14.3611 65.0435 12.5499C64.1086 10.8548 62.5652 9.21145 60.8898 7.80035C59.0573 6.25528 57.0625 4.98172 55.5423 4.22258C55.3086 4.10648 55.0427 4.1297 54.8375 4.26188C53.5868 4.93528 52.0345 5.96056 50.5339 7.18768C48.6997 8.49161 47.0332 9.37578 45.5023 9.94736C43.6342 10.644 41.9694 10.8708 40.4546 10.8262C38.599 10.7726 36.3669 10.1831 34.0901 9.29897C31.412 8.26118 28.691 6.81972 26.4446 5.36397C26.4196 5.34789 26.3928 5.3336 26.3678 5.31931C23.9359 3.75639 21.1275 2.44174 18.1656 1.51112L73.2636 1.50577C72.6463 1.76119 72.0753 2.1363 71.5829 2.5882C70.9601 3.15979 70.4606 3.86177 70.1537 4.60126C69.8325 5.37468 69.7183 6.19812 69.8842 6.97691C70.1697 8.32191 71.2492 9.4883 73.4742 9.98844C73.8578 10.0724 74.2378 9.83126 74.3217 9.44723C74.4056 9.06319 74.1647 8.68273 73.7811 8.59878C72.202 8.24511 71.4544 7.50741 71.2795 6.68218C71.176 6.19812 71.2563 5.66583 71.4704 5.14783C71.6988 4.59769 72.0753 4.07254 72.5481 3.63671C73.5687 2.69895 75.0265 2.20596 76.3575 2.86507C78.2078 3.7796 79.2909 5.26037 79.6067 6.82508C79.7833 7.69675 79.7191 8.59878 79.4176 9.44543C79.1142 10.2957 78.57 11.087 77.7814 11.7336C76.1185 13.0982 73.3778 13.8288 69.5327 13.1572C69.1456 13.0911 68.7762 13.3519 68.7102 13.7413C68.6442 14.1289 68.9047 14.4986 69.2936 14.5647C73.5919 15.3149 76.7269 14.4414 78.6842 12.8339C78.8537 12.6945 79.0161 12.5481 79.1678 12.398L93.2813 12.4445C93.6738 12.4445 93.9914 12.1265 93.9914 11.7336C93.9914 11.3406 93.6738 11.0227 93.2813 11.0227L80.2722 10.9798C80.4685 10.6404 80.6309 10.2885 80.7611 9.92771C81.1483 8.84171 81.2286 7.67889 81.0002 6.54822C80.6005 4.57268 79.2623 2.71503 76.9874 1.58972C76.9285 1.56114 76.8696 1.53256 76.809 1.50577H82.3545H82.3509ZM86.7241 6.70004C86.3316 6.70004 86.014 7.01799 86.014 7.41095C86.014 7.80392 86.3316 8.12186 86.7241 8.12186H100.29C100.682 8.12186 101 7.80392 101 7.41095C101 7.01799 100.682 6.70004 100.29 6.70004H86.7241ZM27.4313 26.0786C27.9523 26.2018 28.4108 26.8573 28.4947 28.4131C26.9406 28.3292 26.2858 27.8701 26.1627 27.3485C26.0913 27.0431 26.2519 26.6948 26.5142 26.4304C26.7782 26.1661 27.1262 26.0053 27.4313 26.0786ZM8.23081 86.704C8.23081 86.3093 7.91142 85.9896 7.5171 85.9896C7.12278 85.9896 6.8034 86.3093 6.8034 86.704V100.285C6.8034 100.679 7.12278 100.999 7.5171 100.999C7.91142 100.999 8.23081 100.679 8.23081 100.285V86.704ZM6.94257 26.2679C6.81767 26.0678 6.69277 25.8714 6.56787 25.6784C6.54111 25.6391 6.51256 25.6016 6.48044 25.5695C4.27509 22.1239 2.59253 17.8942 1.85028 13.5608C4.42854 20.1984 9.30672 22.2275 13.9494 24.1584C16.9594 25.4105 19.866 26.618 21.8251 29.0972C22.2248 29.6027 22.4318 30.0475 22.4246 30.4369C22.4175 30.7906 22.2123 31.1514 21.7876 31.53C20.3442 32.8161 18.8151 33.4109 17.2735 33.4466C15.8764 33.4788 14.449 33.0537 13.0519 32.2695C11.6191 31.464 10.2203 30.2797 8.91775 28.815C8.22724 28.038 7.56706 27.186 6.94257 26.2697V26.2679ZM13.5479 1.8505C19.3628 2.84899 24.9886 5.54616 28.7837 8.92565C30.2468 10.2296 31.4298 11.6282 32.2345 13.0643C33.0196 14.4629 33.4424 15.8918 33.4103 17.2904C33.3746 18.8319 32.7805 20.3645 31.4958 21.8095C31.1175 22.2346 30.7571 22.4401 30.4038 22.4472C30.0149 22.4543 29.5706 22.2471 29.0656 21.847C26.5891 19.884 25.3829 16.9761 24.1322 13.9627C22.2052 9.31505 20.1782 4.43156 13.5461 1.8505H13.5479Z" fill="white"/>
</svg>
